alexipharmakon-Regular.ufo
<glyph name="exclam" format="2">
	<advance width="200"/>
	<unicode hex="0021"/>
	<outline>
		<contour>
			<point x="75" y="50" type="line"/>
			<point x="75" y="0" type="line"/>
			<point x="125" y="0" type="line"/>
			<point x="125" y="50" type="line"/>
		</contour>
		<contour>
			<point x="75" y="100" type="line"/>
			<point x="50" y="600" type="line"/>
			<point x="150" y="600" type="line"/>
			<point x="125" y="100" type="line"/>
		</contour>
	</outline>
</glyph>
<glyph name="bracketleft" format="2">
	<advance width="300"/>
	<unicode hex="005B"/>
	<outline>
		<contour>
			<point x="150" y="-200" type="line"/>
			<point x="150" y="595" type="line"/>
			<point x="250" y="595" type="line"/>
			<point x="250" y="600" type="line"/>
			<point x="50" y="600" type="line"/>
			<point x="50" y="-205" type="line"/>
			<point x="250" y="-205" type="line"/>
			<point x="250" y="-200" type="line"/>
		</contour>
	</outline>
</glyph>
<glyph name="bracketright" format="2">
	<advance width="300"/>
	<unicode hex="005D"/>
	<outline>
		<contour>
			<point x="150" y="-200" type="line"/>
			<point x="50" y="-200" type="line"/>
			<point x="50" y="-205" type="line"/>
			<point x="250" y="-205" type="line"/>
			<point x="250" y="600" type="line"/>
			<point x="50" y="600" type="line"/>
			<point x="50" y="595" type="line"/>
			<point x="150" y="595" type="line"/>
		</contour>
	</outline>
</glyph>
<glyph name="a" format="2">
	<advance width="400"/>
	<unicode hex="0061"/>
	<anchor x="200" y="400" name="top"/>
	<outline>
		<contour>
			<point x="250" y="395" type="line"/>
			<point x="250" y="5" type="line"/>
			<point x="150" y="5" type="line"/>
			<point x="150" y="195" type="line"/>
			<point x="250" y="195" type="line"/>
			<point x="250" y="200" type="line"/>
			<point x="50" y="200" type="line"/>
			<point x="50" y="0" type="line"/>
			<point x="350" y="0" type="line"/>
			<point x="350" y="400" type="line"/>
			<point x="50" y="400" type="line"/>
			<point x="50" y="300" type="line"/>
			<point x="150" y="300" type="line"/>
			<point x="150" y="395" type="line"/>
		</contour>
	</outline>
</glyph>
<glyph name="b" format="2">
	<advance width="400"/>
	<unicode hex="0062"/>
	<outline>
		<contour>
			<point x="350" y="400" type="line"/>
			<point x="350" y="0" type="line"/>
			<point x="50" y="0" type="line"/>
			<point x="50" y="600" type="line"/>
			<point x="150" y="600" type="line"/>
			<point x="150" y="5" type="line"/>
			<point x="250" y="5" type="line"/>
			<point x="250" y="395" type="line"/>
			<point x="150" y="395" type="line"/>
			<point x="150" y="400" type="line"/>
		</contour>
	</outline>
</glyph>
<glyph name="c" format="2">
	<advance width="400"/>
	<unicode hex="0063"/>
	<outline>
		<contour>
			<point x="150" y="395" type="line"/>
			<point x="250" y="395" type="line"/>
			<point x="250" y="300" type="line"/>
			<point x="350" y="300" type="line"/>
			<point x="350" y="400" type="line"/>
			<point x="50" y="400" type="line"/>
			<point x="50" y="0" type="line"/>
			<point x="350" y="0" type="line"/>
			<point x="350" y="100" type="line"/>
			<point x="250" y="100" type="line"/>
			<point x="250" y="5" type="line"/>
			<point x="150" y="5" type="line"/>
		</contour>
	</outline>
</glyph>
<glyph name="e" format="2">
	<advance width="400"/>
	<unicode hex="0065"/>
	<outline>
		<contour>
			<point x="150" y="5" type="line"/>
			<point x="150" y="395" type="line"/>
			<point x="250" y="395" type="line"/>
			<point x="250" y="205" type="line"/>
			<point x="150" y="205" type="line"/>
			<point x="150" y="200" type="line"/>
			<point x="350" y="200" type="line"/>
			<point x="350" y="400" type="line"/>
			<point x="50" y="400" type="line"/>
			<point x="50" y="0" type="line"/>
			<point x="350" y="0" type="line"/>
			<point x="350" y="100" type="line"/>
			<point x="250" y="100" type="line"/>
			<point x="250" y="5" type="line"/>
		</contour>
	</outline>
</glyph>
<glyph name="f" format="2">
	<advance width="400"/>
	<unicode hex="0066"/>
	<outline>
		<contour>
			<point x="150" y="545" type="line"/>
			<point x="250" y="545" type="line"/>
			<point x="250" y="450" type="line"/>
			<point x="350" y="450" type="line"/>
			<point x="350" y="550" type="line"/>
			<point x="50" y="550" type="line"/>
			<point x="50" y="0" type="line"/>
			<point x="150" y="0" type="line"/>
		</contour>
		<contour>
			<point x="50" y="400" type="line"/>
			<point x="50" y="395" type="line"/>
			<point x="250" y="395" type="line"/>
			<point x="250" y="400" type="line"/>
		</contour>
	</outline>
</glyph>
<glyph name="h" format="2">
	<advance width="400"/>
	<unicode hex="0068"/>
	<outline>
		<contour>
			<point x="350" y="0" type="line"/>
			<point x="350" y="400" type="line"/>
			<point x="150" y="400" type="line"/>
			<point x="150" y="395" type="line"/>
			<point x="250" y="395" type="line"/>
			<point x="250" y="0" type="line"/>
		</contour>
		<contour>
			<point x="150" y="0" type="line"/>
			<point x="150" y="600" type="line"/>
			<point x="50" y="600" type="line"/>
			<point x="50" y="0" type="line"/>
		</contour>
	</outline>
</glyph>
<glyph name="i" format="2">
	<advance width="200"/>
	<unicode hex="0069"/>
	<outline>
		<contour>
			<point x="50" y="0" type="line"/>
			<point x="50" y="400" type="line"/>
			<point x="150" y="400" type="line"/>
			<point x="150" y="0" type="line"/>
		</contour>
		<contour>
			<point x="50" y="500" type="line"/>
			<point x="50" y="450" type="line"/>
			<point x="150" y="450" type="line"/>
			<point x="150" y="500" type="line"/>
		</contour>
	</outline>
</glyph>
<glyph name="j" format="2">
	<advance width="400"/>
	<unicode hex="006A"/>
	<outline>
		<contour>
			<point x="250" y="-195" type="line"/>
			<point x="250" y="400" type="line"/>
			<point x="350" y="400" type="line"/>
			<point x="350" y="-200" type="line"/>
			<point x="50" y="-200" type="line"/>
			<point x="50" y="-100" type="line"/>
			<point x="150" y="-100" type="line"/>
			<point x="150" y="-195" type="line"/>
		</contour>
		<contour>
			<point x="250" y="500" type="line"/>
			<point x="250" y="450" type="line"/>
			<point x="350" y="450" type="line"/>
			<point x="350" y="500" type="line"/>
		</contour>
	</outline>
</glyph>
<glyph name="k" format="2">
	<advance width="405"/>
	<unicode hex="006B"/>
	<outline>
		<contour>
			<point x="50" y="0" type="line"/>
			<point x="50" y="600" type="line"/>
			<point x="150" y="600" type="line"/>
			<point x="150" y="0" type="line"/>
		</contour>
		<contour>
			<point x="241" y="400" type="line"/>
			<point x="150" y="300" type="line"/>
			<point x="250" y="200" type="line"/>
			<point x="250" y="0" type="line"/>
			<point x="350" y="0" type="line"/>
			<point x="350" y="200" type="line"/>
			<point x="250" y="300" type="line"/>
			<point x="355" y="400" type="line"/>
		</contour>
	</outline>
</glyph>
<glyph name="l" format="2">
	<advance width="200"/>
	<unicode hex="006C"/>
	<outline>
		<contour>
			<point x="50" y="0" type="line"/>
			<point x="50" y="600" type="line"/>
			<point x="150" y="600" type="line"/>
			<point x="150" y="0" type="line"/>
		</contour>
	</outline>
</glyph>
<glyph name="m" format="2">
	<advance width="600"/>
	<unicode hex="006D"/>
	<outline>
		<contour>
			<point x="350" y="0" type="curve"/>
			<point x="350" y="395" type="line"/>
			<point x="450" y="395" type="line"/>
			<point x="450" y="0" type="line"/>
			<point x="550" y="0" type="line"/>
			<point x="550" y="400" type="line"/>
			<point x="50" y="400" type="line"/>
			<point x="50" y="0" type="line"/>
			<point x="150" y="0" type="line"/>
			<point x="150" y="395" type="line"/>
			<point x="250" y="395" type="line"/>
			<point x="250" y="0" type="line"/>
			<point x="283" y="0"/>
			<point x="345" y="0"/>
		</contour>
	</outline>
</glyph>
<glyph name="n" format="2">
	<advance width="400"/>
	<unicode hex="006E"/>
	<outline>
		<contour>
			<point x="50" y="0" type="line"/>
			<point x="50" y="400" type="line"/>
			<point x="350" y="400" type="line"/>
			<point x="350" y="0" type="line"/>
			<point x="250" y="0" type="line"/>
			<point x="250" y="395" type="line"/>
			<point x="150" y="395" type="line"/>
			<point x="150" y="0" type="line"/>
		</contour>
	</outline>
</glyph>
<glyph name="r" format="2">
	<advance width="400"/>
	<unicode hex="0072"/>
	<outline>
		<contour>
			<point x="50" y="0" type="line"/>
			<point x="50" y="400" type="line"/>
			<point x="350" y="400" type="line"/>
			<point x="350" y="300" type="line"/>
			<point x="250" y="300" type="line"/>
			<point x="250" y="395" type="line"/>
			<point x="150" y="395" type="line"/>
			<point x="150" y="0" type="line"/>
		</contour>
	</outline>
</glyph>
<glyph name="t" format="2">
	<advance width="300"/>
	<unicode hex="0074"/>
	<outline>
		<contour>
			<point x="150" y="450" type="line"/>
			<point x="50" y="450" type="line"/>
			<point x="50" y="0" type="line"/>
			<point x="150" y="0" type="line"/>
		</contour>
		<contour>
			<point x="50" y="400" type="line"/>
			<point x="50" y="395" type="line"/>
			<point x="250" y="395" type="line"/>
			<point x="250" y="400" type="line"/>
		</contour>
	</outline>
</glyph>
<glyph name="u" format="2">
	<advance width="400"/>
	<unicode hex="0075"/>
	<anchor x="200" y="400" name="top"/>
	<outline>
		<contour>
			<point x="50" y="400" type="line"/>
			<point x="150" y="400" type="line"/>
			<point x="150" y="5" type="line"/>
			<point x="250" y="5" type="line"/>
			<point x="250" y="400" type="line"/>
			<point x="350" y="400" type="line"/>
			<point x="350" y="0" type="line"/>
			<point x="50" y="0" type="line"/>
		</contour>
	</outline>
</glyph>
<glyph name="x" format="2">
	<advance width="400"/>
	<unicode hex="0078"/>
	<outline>
		<contour>
			<point x="50" y="400" type="line"/>
			<point x="50" y="250" type="line"/>
			<point x="250" y="150" type="line"/>
			<point x="250" y="-1" type="line"/>
			<point x="350" y="-1" type="line"/>
			<point x="350" y="150" type="line"/>
			<point x="150" y="250" type="line"/>
			<point x="150" y="400" type="line"/>
		</contour>
		<contour>
			<point x="350" y="400" type="line"/>
			<point x="250" y="400" type="line"/>
			<point x="250" y="250" type="line"/>
			<point x="50" y="150" type="line"/>
			<point x="50" y="-1" type="line"/>
			<point x="150" y="-1" type="line"/>
			<point x="150" y="150" type="line"/>
			<point x="350" y="250" type="line"/>
		</contour>
	</outline>
</glyph>
<glyph name="z" format="2">
	<advance width="400"/>
	<unicode hex="007A"/>
	<outline>
		<contour>
			<point x="60" y="100" type="line"/>
			<point x="350" y="300" type="line"/>
			<point x="350" y="400" type="line"/>
			<point x="50" y="400" type="line"/>
			<point x="50" y="300" type="line"/>
			<point x="340" y="300" type="line"/>
			<point x="50" y="100" type="line"/>
			<point x="50" y="-1" type="line"/>
			<point x="350" y="-1" type="line"/>
			<point x="350" y="100" type="line"/>
		</contour>
	</outline>
</glyph>
<glyph name="dieresis" format="2">
	<advance width="400"/>
	<unicode hex="00A8"/>
	<anchor x="200" y="400" name="_top"/>
	<outline>
		<contour>
			<point x="50" y="500" type="line"/>
			<point x="50" y="450" type="line"/>
			<point x="150" y="450" type="line"/>
			<point x="150" y="500" type="line"/>
		</contour>
		<contour>
			<point x="250" y="500" type="line"/>
			<point x="250" y="450" type="line"/>
			<point x="350" y="450" type="line"/>
			<point x="350" y="500" type="line"/>
		</contour>
	</outline>
</glyph>
<glyph name="idotless" format="2">
	<advance width="200"/>
	<unicode hex="0131"/>
	<anchor x="100" y="400" name="top"/>
	<outline>
		<contour>
			<point x="50" y="0" type="line"/>
			<point x="50" y="400" type="line"/>
			<point x="150" y="400" type="line"/>
			<point x="150" y="0" type="line"/>
		</contour>
	</outline>
</glyph>
<glyph name="schwa" format="2">
	<advance width="400"/>
	<unicode hex="0259"/>
	<outline>
		<contour>
			<point x="250" y="395" type="line"/>
			<point x="250" y="5" type="line"/>
			<point x="150" y="5" type="line"/>
			<point x="150" y="195" type="line"/>
			<point x="250" y="195" type="line"/>
			<point x="250" y="200" type="line"/>
			<point x="50" y="200" type="line"/>
			<point x="50" y="0" type="line"/>
			<point x="350" y="0" type="line"/>
			<point x="350" y="400" type="line"/>
			<point x="50" y="400" type="line"/>
			<point x="50" y="395" type="line"/>
			<point x="150" y="395" type="line"/>
		</contour>
	</outline>
</glyph>
<glyph name="breve" format="2">
	<advance width="400"/>
	<unicode hex="02D8"/>
	<anchor x="200" y="400" name="_top"/>
	<outline>
		<contour>
			<point x="150" y="455" type="line"/>
			<point x="150" y="500" type="line"/>
			<point x="50" y="500" type="line"/>
			<point x="50" y="450" type="line"/>
			<point x="350" y="450" type="line"/>
			<point x="350" y="500" type="line"/>
			<point x="250" y="500" type="line"/>
			<point x="250" y="455" type="line"/>
		</contour>
	</outline>
</glyph>
<glyph name="endash" format="2">
	<advance width="500"/>
	<unicode hex="2013"/>
	<outline>
		<contour>
			<point x="50" y="300" type="line"/>
			<point x="50" y="200" type="line"/>
			<point x="450" y="200" type="line"/>
			<point x="450" y="300" type="line"/>
		</contour>
	</outline>
</glyph>
<glyph name="emdash" format="2">
	<advance width="900"/>
	<unicode hex="2014"/>
	<outline>
		<contour>
			<point x="50" y="300" type="line"/>
			<point x="50" y="200" type="line"/>
			<point x="850" y="200" type="line"/>
			<point x="850" y="300" type="line"/>
		</contour>
	</outline>
</glyph>
